<?xml version="1.0" encoding="UTF-8"?>
<svg id="gale_doodles" data-name="gale doodles" xmlns="http://www.w3.org/2000/svg" viewBox="0 0 431.41 751.12">
  <defs>
    <style>
      .cls-1 {
        fill: #fff;
      }
    </style>
  </defs>
  <g id="arm">
    <path class="cls-1" d="M59.72,750.88c43.52-7.64,87.11-14.95,130.74-21.93,43.64-6.97,87.33-13.62,131.06-19.92,24.62-3.55,49.25-6.99,73.89-10.33,3.74-.51,7.74-1.72,10.97-3.73,1.86-1.16,5.16-3.65,5.48-6.16.84-6.43-8.29-6.88-12.54-6.3-43.79,5.93-87.54,12.19-131.23,18.79-43.69,6.6-87.34,13.53-130.93,20.8-24.53,4.09-49.05,8.29-73.54,12.59-3.83.67-7.62,1.64-10.97,3.73-1.86,1.16-5.16,3.65-5.48,6.16-.83,6.31,8.28,7.05,12.54,6.3h0Z"/>
    <path class="cls-1" d="M139.52,515.51c-13.24,29.85-26.47,59.71-39.71,89.56s-26.47,59.71-39.71,89.56c-7.48,16.87-14.96,33.75-22.44,50.62-1.07,2.41,1.96,2.96,3.62,3.15,4,.46,7.97-.36,11.84-1.31,11.3-2.77,22.63-5.44,33.99-8,.34-.08.67-.15,1.01-.23.38-.09-3.8.85-2.21.5.67-.15,1.35-.3,2.02-.45,1.46-.33,2.92-.65,4.39-.97,2.93-.64,5.85-1.28,8.78-1.91,5.63-1.21,11.27-2.4,16.92-3.56,22.8-4.68,45.69-8.94,68.65-12.76,11.48-1.91,22.98-3.71,34.5-5.41,5.81-.86,11.63-1.68,17.46-2.48,1.37-.19,2.74-.36,4.11-.56.27-.04-3.35.45-1.87.25.34-.05.69-.09,1.03-.14.8-.11,1.6-.21,2.4-.32,2.86-.38,5.71-.75,8.57-1.11,23.21-2.96,46.47-5.48,69.77-7.56,23.19-2.07,46.41-3.7,69.66-4.89,2.88-.15,5.75-.29,8.63-.42,3.69-.17,7.84-1.3,11.28-2.55,2.46-.89,6.23-2.33,8.12-4.35.97-1.04,2.29-2.65.55-3.79-2.03-1.33-5.15-.96-7.37-.85-23.48,1.1-46.94,2.64-70.37,4.62-23.31,1.98-46.58,4.4-69.8,7.26-24.3,2.99-48.54,6.42-72.71,10.32s-46.34,7.94-69.39,12.57c-24.12,4.85-48.16,10.16-72.08,15.92-2.8.67-5.6,1.35-8.4,2.04,5.16.61,10.31,1.23,15.47,1.84,13.24-29.85,26.47-59.71,39.71-89.56,13.24-29.85,26.47-59.71,39.71-89.56,7.48-16.87,14.96-33.75,22.44-50.62.8-1.81-.92-2.63-2.37-3.01-2.73-.72-6.53-.22-9.2.29-3.76.72-7.6,1.72-11.05,3.44-2,1-4.99,2.25-5.95,4.42h0Z"/>
  </g>
  <g id="pencil">
    <path class="cls-1" d="M304.56,625.32c11.09,12.58,22.18,25.16,33.28,37.73,11.1,12.57,22.2,25.14,33.33,37.69,6.21,7,12.43,14,18.66,20.98,2.22,2.49,4.96,3.83,8.28,4.28,3.62.49,8.21-.25,11.44-1.97,2.93-1.55,6.15-3.77,7.41-6.98,1.01-2.59,1.4-5.92-.63-8.21-11.09-12.44-22.15-24.91-33.19-37.39-11.11-12.56-22.2-25.14-33.29-37.72-6.26-7.1-12.52-14.2-18.78-21.3-2.2-2.49-4.98-3.83-8.28-4.28-3.62-.49-8.21.25-11.44,1.97-2.93,1.55-6.15,3.77-7.41,6.98-1.02,2.6-1.39,5.91.63,8.21h0Z"/>
    <path class="cls-1" d="M398.81,728.21c7.94,4.99,16.38,9.32,25.16,12.63,2.11.8,5.93.68,7.19-1.6.88-1.58-.85-3.96-1.5-5.38-2.11-4.58-4.22-9.16-6.33-13.74-.74-1.61-6.35.08-5.8,1.55,1.67,4.42,3.34,8.84,5.02,13.26l5.25-2.02c-2.7-1.21-5.18-2.77-7.47-4.64l-5.43,2.1c2.35,1.57,4.7,3.15,7.06,4.72l4.55-2.41c-2.28-.33-4.26-1.45-5.89-3.05l-5.43,2.1,4.4,3.15,5.06-2.3c-2.17-.63-4.13-1.6-5.94-2.96-.98-.74-2.76-.24-3.78.16-.48.19-2.55,1.18-1.65,1.95,2.37,2.02,5.04,3.63,7.91,4.83,1.09.46,2.75-.04,3.74-.5.35-.16,2.25-1.25,1.32-1.8-1.8-1.05-3.34-2.38-4.66-3.99l-5.43,2.1,5.04,3.94c.86.67,2.49.27,3.4-.03.41-.14,2.7-1.02,2.21-1.79l-5.95-9.4-5.61,1.83,5.37,7.26,5.43-2.1c-2.32-2.39-4.34-5.01-6.01-7.89-.96-1.65-6.46.4-5.8,1.55,1.78,3.07,3.91,5.9,6.38,8.44,1.09,1.13,6.56-.57,5.43-2.1l-5.37-7.26c-.93-1.26-6.29.75-5.61,1.83l5.95,9.4,5.61-1.83-5.04-3.94c-1.16-.91-6.67.59-5.43,2.1,1.32,1.61,2.86,2.93,4.66,3.99l5.06-2.3c-2.63-1.1-5.01-2.6-7.18-4.44l-5.43,2.1c2.01,1.51,4.26,2.64,6.67,3.34,1.2.35,2.65.01,3.74-.5.41-.19,2.19-1.17,1.32-1.8l-4.4-3.15c-1.01-.72-2.74-.25-3.78.16-.54.21-2.49,1.12-1.65,1.95,2.1,2.06,4.76,3.24,7.65,3.65,1.15.16,2.55-.22,3.56-.76.38-.2,1.76-1.13.99-1.65-2.35-1.57-4.7-3.15-7.06-4.72-1.04-.7-2.71-.26-3.78.16-.46.18-2.56,1.2-1.65,1.95,2.5,2.05,5.25,3.72,8.2,5.03.95.43,2.51,0,3.41-.35.5-.2,2.13-.89,1.83-1.67-1.67-4.42-3.34-8.84-5.02-13.26l-5.8,1.55c1.5,3.25,2.99,6.5,4.49,9.75.75,1.62,1.5,3.25,2.25,4.87.43.93,1.78,2.8,1.14,3.83l.61-.7.67-.36,2.26-.48c.58.1.63.07.14-.07-.29-.11-.58-.22-.86-.33-.58-.22-1.15-.45-1.72-.68-1.14-.46-2.28-.94-3.42-1.43-2.12-.92-4.22-1.9-6.3-2.92-4.31-2.13-8.49-4.49-12.56-7.04-1.07-.67-2.68-.27-3.78.16-.36.14-2.65,1.31-1.65,1.95h0Z"/>
    <path class="cls-1" d="M388.21,718.75c3.91,3.37,7.81,6.74,11.72,10.11.84.73,2.62.63,3.53.08.53-.32-.08-.16.54-.15,1.58.02,4.09-1.76,2.88-3.51-1.44-2.09-3.21-3.93-5.22-5.48l-4.44,3.44c3.89,2.87,7.78,5.73,11.66,8.6,1.09.8,2.78.57,3.85-.12.81-.52,1.97-1.93,1.02-2.9-2.97-3.04-5.95-6.08-8.92-9.12l-4.87,3.02c4.07,2.93,8.13,5.86,12.2,8.8,1.1.79,2.77.58,3.85-.12.85-.55,1.91-1.88,1.02-2.9-3.55-4.05-7.1-8.11-10.65-12.16l-4.87,3.02c3.81,3.39,7.63,6.78,11.44,10.17,1.7,1.51,6.64-.68,4.87-3.02-2.9-3.81-5.79-7.62-8.69-11.44l-5.29,2.6c3.07,3.11,5.98,6.36,8.75,9.74,1.69,2.07,7.07.03,5.29-2.6-1.88-2.79-3.59-5.67-5.13-8.66l-4.87,3.02c2.42,1.99,4.71,4.12,6.87,6.4,1.02,1.08,2.65,1.14,3.95.5,1.09-.54,2.19-1.89,1.34-3.1l-6.78-9.59-5.29,2.6c2.39,2.84,5.05,5.45,7.93,7.79,1.74,1.41,6.59-.58,4.87-3.02-2.63-3.74-5.26-7.48-7.89-11.23l-5.29,2.6c3.34,3.62,6.68,7.23,10.02,10.85,1.01,1.09,2.66,1.14,3.95.5,1.15-.57,2.12-1.85,1.34-3.1-2.36-3.76-4.96-7.35-7.82-10.76-.95-1.13-2.71-1.11-3.95-.5-1.01.5-2.28,1.95-1.34,3.1,3.11,3.79,6.22,7.58,9.33,11.37.94,1.14,2.72,1.11,3.95.5,1.01-.5,2.28-1.95,1.34-3.1-3.11-3.79-6.22-7.58-9.33-11.37l-5.29,2.6c2.85,3.4,5.46,6.99,7.82,10.76l5.29-2.6c-3.34-3.62-6.68-7.23-10.02-10.85-1.01-1.09-2.66-1.14-3.95-.5-1.09.54-2.19,1.89-1.34,3.1,2.63,3.74,5.26,7.48,7.89,11.23l4.87-3.02c-2.58-2.1-4.93-4.41-7.08-6.95-1.72-2.03-7.12.02-5.29,2.6l6.78,9.59,5.29-2.6c-2.42-2.57-4.99-4.99-7.72-7.23-1.87-1.54-6.19.45-4.87,3.02,1.54,2.99,3.25,5.87,5.13,8.66l5.29-2.6c-2.77-3.38-5.69-6.63-8.75-9.74-1.05-1.06-2.63-1.15-3.95-.5-1.05.52-2.24,1.92-1.34,3.1,2.9,3.81,5.79,7.62,8.69,11.44l4.87-3.02c-3.81-3.39-7.63-6.78-11.44-10.17-.99-.88-2.86-.52-3.85.12-.85.55-1.91,1.88-1.02,2.9,3.55,4.05,7.1,8.11,10.65,12.16l4.87-3.02c-4.07-2.93-8.13-5.86-12.2-8.8-1.1-.79-2.77-.58-3.85.12-.81.52-1.97,1.93-1.02,2.9,2.97,3.04,5.95,6.08,8.92,9.12l4.87-3.02c-3.89-2.87-7.78-5.73-11.66-8.6-2.15-1.59-7.15,1.36-4.44,3.44,1.71,1.32,3.14,2.86,4.37,4.64l2.88-3.51c-1.25-.02-2.55.33-3.63.98l3.53.08c-3.91-3.37-7.81-6.74-11.72-10.11-2.04-1.76-7.03,1.21-4.44,3.44h0Z"/>
    <path class="cls-1" d="M325.3,641.4c.71.12.16.03,0-.01s-.33-.07-.49-.11c-.35-.09-.71-.19-1.05-.3-.32-.11-.63-.23-.95-.35-.16-.06-.1-.04.16.07-.08-.03-.15-.07-.23-.1-.18-.08-.36-.17-.53-.25-1.27-.63-3-.41-4.13.43-.93.69-1.57,1.87-.4,2.68,1.07.74,2.1,1.52,3.09,2.36l-.4-.34c1.73,1.47,3.34,3.08,4.8,4.82l5.34-2.43c-2.3-2.16-4.43-4.49-6.39-6.97-.36-.46-1.07-.64-1.61-.69-.73-.06-1.63.1-2.28.42-.92.46-2.3,1.56-1.45,2.7,1.55,2.05,3.35,3.84,5.35,5.46.44.36,1.43.41,1.95.34.66-.08,1.28-.27,1.86-.59.78-.44,1.96-1.57,1.12-2.52-1.94-2.21-3.87-4.42-5.81-6.62-.66-.75-1.85-.77-2.75-.61-1.05.19-2.08.69-2.66,1.61-.55.86-.66,2.05-.28,3s1,1.69,1.65,2.44c1.36,1.58,2.71,3.15,4.07,4.73.89,1.03,2.8.81,3.89.27.91-.45,2.32-1.57,1.45-2.7-2.18-2.81-4.36-5.64-6.02-8.8l-5.34,2.43c2,3.32,4.36,6.4,7.03,9.2.95,1,2.75.83,3.89.27.8-.39,2.44-1.66,1.45-2.7-2.67-2.8-5.03-5.89-7.03-9.2-.28-.46-1.15-.65-1.61-.69-.73-.06-1.63.1-2.28.42-.57.28-1.23.67-1.52,1.27-.25.54-.2.91.07,1.43,1.66,3.16,3.84,5.99,6.02,8.8l5.34-2.43c-.96-1.11-1.91-2.22-2.87-3.34-.85-.99-1.88-1.96-2.49-3.12l.23.44c-.17-.35-.27-.7-.31-1.09l.02.49c0-.29.03-.55.11-.82l-.18.5c.06-.13.11-.25.19-.37l-5.41,1c1.94,2.21,3.87,4.42,5.81,6.62l4.93-2.77c-.17-.14-.33-.27-.5-.41l.4.34c-1.65-1.4-3.14-2.98-4.44-4.71l-5.34,2.43c1.95,2.48,4.09,4.81,6.39,6.97,1.01.95,2.7.86,3.89.27.87-.43,2.36-1.61,1.45-2.7-2.41-2.87-5.22-5.4-8.3-7.52l-4.53,3.11c1.77.88,3.57,1.42,5.52,1.76.69.12,1.67-.14,2.28-.42.53-.24,1.25-.71,1.52-1.27.21-.46.31-1.01-.07-1.43-.43-.47-1.01-.59-1.61-.69h0Z"/>
  </g>
  <g id="head">
    <g id="hair">
      <path class="cls-1" d="M11.54,336.39c-6.17,21.39-5.11,44.56,3.37,65.18,7.95,19.32,22.5,35.79,40.38,46.53,10.16,6.09,21.48,10.35,33.11,12.59,3.65-3.08,7.29-6.15,10.94-9.23-.36.1-.73.19-1.1.29,3.28-.73,4.21-.95,2.79-.64l-.37.07c-.18.04-.37.07-.55.1-1.12.19-.24.07,2.64-.39-.37.05-.74.1-1.11.14s-.74.07-1.12.1c2.41-.12,3.13-.16,2.16-.12-.19,0-.37.01-.56.02-.75.02-1.49,0-2.24-.02-.78-.03-2.21-.32.98.09-.37-.05-.75-.07-1.12-.12-.75-.09-1.49-.2-2.23-.34-1.48-.27-2.95-.65-4.39-1.09l1.71.54c-7.17-2.28-13.61-6.49-18.63-12.08l.8.9c-14.46-16.39-15.81-39.49-13.39-60.2.8-6.82,1.96-13.58,3.12-20.35.26-1.53-4.86-1.63-4.98-1.63-2.91.02-5.78.51-8.61,1.15-3.08.71-6.24,1.59-9.11,2.94l-2.77,1.4c-1.3.66-2.39,1.56-3.26,2.72-4.96,18.91-.7,39.42,11.49,54.74,6.27,7.89,14.15,14.19,23.47,18.08,11.31,4.71,23.31,5.92,35.45,5.11,9.01-.6,17.92-2.73,26.48-5.53,7.21-2.36,14.39-5.58,20.68-9.86-8.41.9-16.82,1.79-25.24,2.69-1.47,2.53-3.2,4.88-5.17,7.04l1.21-1.32c-1.21,1.3-2.49,2.53-3.86,3.67-.63.53-1.28,1.04-1.95,1.53-.36.26-.72.51-1.08.77,2.66-1.93,1.41-.96.78-.56-.75.48-1.51.93-2.29,1.35-.33.18-.67.36-1.01.53,2.21-1.1,2.79-1.4,1.75-.89-.17.08-.34.16-.52.24-.4.19-.81.36-1.22.54-1.81.8,3.8-1.43,1.94-.76-.42.15-.83.3-1.25.45-2.34.79,4.25-1.23,2.18-.66-.37.1-.73.21-1.1.3-.25.06-.49.12-.74.18,3.27-.73,4.2-.95,2.77-.65-.4.08-.8.15-1.2.23-2,.37,3.88-.51,1.95-.29-1.21.14-4.86.18-.15.1-.95.02-1.9.05-2.86.02-.41-.01-.82-.03-1.22-.05-1.65-.07,2.4.24.85.06-.95-.11-1.89-.22-2.83-.38-1.88-.32-3.73-.78-5.55-1.34l1.71.54c-4.29-1.38-8.31-3.42-11.92-6.12l-25.68,10.11c21.13,3.42,43.26-.78,62.79-9.1-7.09-.01-14.17-.02-21.26-.03-1.35,1.2-2.74,2.33-4.2,3.39-.31.23-.64.43-.94.67-.23.18,2.09-1.4,1.26-.86-.22.14-.43.28-.64.42-.75.49-1.52.96-2.3,1.41-.72.42-1.46.82-2.19,1.21-1.45.77,3.2-1.58,1.22-.62-.4.2-.81.39-1.22.57-.82.37-1.65.71-2.48,1.06-.6.25,3.74-1.45,2.46-.97-.18.07-.36.14-.54.2-.48.18-.97.35-1.45.52-.37.12-.73.24-1.1.36l3.08-.94-.37.11c-.19.05-.37.11-.56.16-.89.25-4.26,1.06-.86.28s.19-.06-.7.11c-.44.08-.89.15-1.33.23-1.35.23,3.25-.46,2.61-.39-.32.04-.64.09-.96.13-.83.11-1.66.19-2.49.26-.38.03-.77.06-1.15.09,4.1-.31,2.83-.15,1.94-.11-.26,0-.51.02-.77.03-1.8.05-3.59-.06-5.39-.09-.29,0,2.5.2,1.52.11-.26-.02-.51-.04-.77-.07-.51-.05-1.02-.11-1.53-.17-.96-.12-1.91-.26-2.86-.43-2.03-.36-4.03-.84-6-1.43-1.34-.21-2.68-.24-4.03-.1-1.72.05-3.43.26-5.11.62-3.2.64-6.34,1.53-9.38,2.72-2.13.84-4.83,1.84-6.5,3.45l-1.21,1.32c-.5.88-.32,1.57.56,2.08,3.46,3.39,8.3,5.35,13.08,5.93s9.68.19,14.54-.6c5.55-.9,11.29-2.6,16.38-5.03-7.49.43-14.98.86-22.47,1.29-.51.92-1.1,1.76-1.8,2.55l1.21-1.32c-.45.48-.92.93-1.42,1.35-.14.12-.29.23-.44.34-.74.54-.29.24,1.37-.91-.24.15-.47.3-.71.44-1.84,1.07,3.02-1.41,1.52-.74-.26.11-.52.23-.78.34,2.93-1.12,3.78-1.46,2.56-1.02-1.35.45-.35.15,3-.91-2.31.61,4.13-.85,2.64-.58-.14.03-.28.06-.42.08-1.28.23-.37.09,2.72-.4-.33.04-.67.07-1,.11-1.15.13,3.88-.14,1.81-.11-.34,0-.67-.02-1-.02-.9,0,3.02.29,1.19.08-.33-.04-.66-.09-.99-.14-.7-.12-1.39-.29-2.07-.5l1.71.54c-2.53-.8-4.79-2.16-6.57-4.14l.8.9c-.44-.51-.83-1.04-1.19-1.6-1.02-1.58-3.33-1.6-4.98-1.63-3.44-.05-7.27.68-10.55,1.6s-6.95,2.01-9.94,3.89c-1.09.68-4.04,2.22-3.5,3.9,2.71,8.4,8.03,15.86,14.92,21.36.94.44,1.92.65,2.95.63,1.44.16,2.89.13,4.33-.08,3.18-.37,6.3-1.07,9.36-2.01,2.71-.83,5.62-1.79,8.03-3.3,1.07-.67,4.07-2.24,3.5-3.9-3.12-9.18-8.16-17.32-14.61-24.52-.94-.44-1.92-.65-2.95-.63-1.44-.16-2.89-.13-4.33.08-3.18.37-6.3,1.07-9.36,2.01-2.71.83-5.62,1.79-8.03,3.3l-2.05,1.4c-.96.59-1.44,1.43-1.45,2.5,4.93,8.3,9.86,16.61,14.79,24.91,9.39-2.89,18.79-5.78,28.18-8.66-.39-.35-.75-.71-1.11-1.09l.8.9c-2.25-2.59-3.49-5.82-3.48-9.26-9.66,2.59-19.32,5.18-28.98,7.76,2.23,2.9,4.97,5.26,8.41,6.58,5.11,1.96,10.61,2.31,16.01,1.56-2.69-.48-5.39-.97-8.08-1.45,1.36,2.52,2.72,5.04,4.08,7.56.86,1.6,3.51,1.6,4.98,1.63,3.44.05,7.27-.68,10.55-1.6s6.95-2.01,9.94-3.89c.9-.57,4.3-2.43,3.5-3.9-1.36-2.52-2.72-5.04-4.08-7.56-1.27-2.35-6.05-1.73-8.08-1.45-.31.04-.61.07-.92.11-1.22.16,3.22-.1,1.99-.11-.31,0-.62,0-.92,0-1.42,0,2.27.24,1.19.09-1.17-.16-2.3-.38-3.43-.72l1.71.54c-3.08-1.01-5.81-2.75-7.96-5.18l.8.9c-.24-.28-.47-.57-.7-.86-.35-.7-.9-1.09-1.65-1.17-1.06-.41-2.17-.56-3.33-.45-3.44-.05-7.27.68-10.55,1.6s-6.95,2.01-9.94,3.89c-1.43.9-3.5,1.97-3.5,3.9,0,4.46,2.11,8.3,5.38,11.25.94.44,1.92.65,2.95.63,1.44.16,2.89.13,4.33-.08,3.18-.37,6.3-1.07,9.36-2.01,2.71-.83,5.62-1.79,8.03-3.3l2.05-1.4c.96-.59,1.44-1.43,1.45-2.5-4.93-8.3-9.86-16.61-14.79-24.91-9.39,2.89-18.79,5.78-28.18,8.66l.29.32-.8-.9c6.01,6.8,10.6,14.71,13.53,23.3,9.39-2.89,18.79-5.78,28.18-8.66-1.99-1.59-3.82-3.33-5.51-5.24l.8.9c-3.87-4.45-6.81-9.61-8.62-15.22-9.66,2.59-19.32,5.18-28.98,7.76,4.83,7.5,13.85,8.52,22.05,7.93,8.36-.6,16.84-3.2,24.23-7.13,3.59-1.91,7.07-4.67,9.07-8.29,1.69-3.06-5.18-2.78-6.29-2.72-2.39.14-4.72.53-7.06,1.07-3.08.71-6.26,1.58-9.11,2.94-.22.1-.44.2-.66.3-1.71.8,3.38-1.24,2.18-.86-2.22.72,4.34-1.25,2.09-.65-1.56.42,4.55-.97,2.66-.63-1.62.29,2.86-.4,2.5-.37-.24.02-.48.05-.72.07-1.61.16,3.14-.11,1.84-.11-.48,0-.96-.01-1.44-.02-.95-.02,2.74.29,1.22.08-.24-.03-.48-.06-.72-.09-1.07-.16-2.13-.41-3.17-.73l1.71.54c-2.88-.94-5.49-2.46-7.66-4.59l-25.68,10.11c9.03,2.68,18.77,2.99,28.08,1.9,13.21-1.55,26.15-5.45,37.9-11.7,4.57-2.43,8.92-5.43,12.78-8.86.85-.75,2-1.88,1.05-2.95-1-1.13-3.27-1.18-4.59-1.18-6.05.04-12.19,1.74-17.72,4.09-.41.18-.83.35-1.24.52-1.97.82,3.69-1.4,1.69-.66-.77.28-1.54.57-2.32.84-.35.12-.71.24-1.06.36-.28.09-.57.18-.85.27l2.96-.91c-.86.25-1.72.5-2.59.73-.79.21-4.02.96-.67.19s.11-.05-.69.1c-.88.17-1.77.29-2.65.46.08-.01,4.12-.59,2.01-.31-.44.06-.89.11-1.33.17-.82.09-1.63.18-2.45.25-.45.04-.89.07-1.34.1-1.76.12,2.9-.14,1.53-.09-1.72.07-3.43.1-5.15.06-.82-.02-1.64-.05-2.46-.09-.39-.02-2.15-.14-.33,0s.3.02-.1-.02c-1.79-.16-3.56-.4-5.33-.68-2.91-.47-6.3-.05-9.14.52-3.2.64-6.34,1.53-9.38,2.72-1.64.64-10.59,4.29-7.15,6.86,8.67,6.47,19.89,9.21,30.61,8.7,8.98-.42,18-2.15,26.4-5.39,6.74-2.6,13.18-5.76,18.83-10.3,4.29-3.45,8.06-7.75,10.82-12.52.72-1.25-.32-2-1.41-2.35-2-.63-4.39-.51-6.43-.28-2.51.29-5,.8-7.46,1.43-1.88.47-3.71,1.08-5.49,1.83-1.54.55-3.03,1.23-4.45,2.06-1.41.96-2.86,1.86-4.35,2.69-.39.21-.77.43-1.16.63-.17.09-.34.17-.5.26-1.06.56,2.37-1.18,1.92-.97-.8.37-1.59.76-2.4,1.12-.4.18-.81.35-1.22.52-.17.07-.35.14-.53.21-.61.25,3.76-1.45,2.47-.98-.83.31-1.66.61-2.49.89-.18.06-.36.12-.54.18-1.81.59,3.25-.98,2.73-.84-.36.1-.73.21-1.09.32-.85.24-1.71.45-2.57.66-.52.13,4.65-1.03,2.78-.64-.19.04-.37.08-.56.12-.37.08-.74.15-1.12.22-.43.08-.87.15-1.31.23-1.69.3,4.11-.58,1.88-.28-.81.11-1.63.21-2.45.29-.44.04-.88.08-1.32.11-.19.01-.38.03-.57.04-1.48.11,2.14-.11,1.96-.11-1.71.01-3.41.1-5.12.05-.82-.03-1.64-.09-2.46-.12-.09,0,2.72.23,1.34.09-.19-.02-.38-.03-.57-.05-.44-.04-.88-.09-1.32-.14-3.89-.46-7.72-1.28-11.46-2.45l1.71.54c-9.87-3.15-18.65-8.77-25.56-16.5l.8.9c-9.75-11.05-15.42-25.57-15.69-40.31-.08-4.22.3-8.43,1.13-12.57l-.24,1.18c.22-1.07.47-2.12.74-3.17l-28.74,6.59c-3.13,18.22-6.35,37.09-2.12,55.41,3.58,15.54,12.99,30.31,28.08,36.74,12.02,5.13,25.31,4.46,37.71,1,2.45-.65,4.84-1.48,7.17-2.49,1.73-.72,3.34-1.65,4.82-2.79.96-.59,1.44-1.43,1.45-2.5-.55-.93-1.38-1.41-2.51-1.44-3.65-.7-7.25-1.61-10.79-2.73l1.71.54c-13-4.15-25.08-11.04-35.31-20.09-2.92-2.59-5.69-5.35-8.29-8.27l.8.9c-15.41-17.44-23.84-40.24-23.96-63.48-.03-6.66.62-13.31,1.95-19.83l-.24,1.18c.51-2.45,1.11-4.87,1.8-7.27.46-.68.41-1.22-.16-1.63-.47-.69-1.17-1.02-2.11-.99-2.76-.59-6.47-.01-9.14.52-3.76.75-7.58,1.75-11.06,3.39l-2.77,1.4c-1.3.66-2.39,1.56-3.26,2.72h0Z"/>
    </g>
    <g id="eyes">
      <path class="cls-1" d="M195.32,298.14c5.45,31.94,10.9,63.88,16.34,95.83,1.54,9.01,3.07,18.02,4.61,27.03.34,1.98,3.93,2.53,5.27,2.68,3.39.38,7.43-.24,10.67-1.17s7.02-2.15,9.82-4.33c1.52-1.18,3.6-2.74,3.22-4.95-5.45-31.94-10.9-63.88-16.34-95.83-1.54-9.01-3.07-18.02-4.61-27.03-.34-1.98-3.93-2.53-5.27-2.68-3.39-.38-7.43.24-10.67,1.17s-7.02,2.15-9.82,4.33c-1.52,1.18-3.6,2.74-3.22,4.95h0Z"/>
      <path class="cls-1" d="M256.4,285.52c3.56,28.88,7.11,57.76,10.67,86.63,1,8.09,1.99,16.17,2.99,24.26.28,2.27,3.88,3.4,5.55,3.74,3.35.67,7.55.21,10.79-.73s7.09-2.31,9.7-4.76c1.77-1.66,3.26-3.41,2.94-6.01-3.56-28.88-7.11-57.76-10.67-86.63-1-8.09-1.99-16.17-2.99-24.26-.28-2.27-3.88-3.4-5.55-3.74-3.35-.67-7.55-.21-10.79.73s-7.09,2.31-9.7,4.76c-1.77,1.66-3.26,3.41-2.94,6.01h0Z"/>
    </g>
    <g id="head_base" data-name="head base">
      <path class="cls-1" d="M421.22,144.7c-26.65-2.72-53.62-3.08-80.33-1.04s-53.51,6.47-79.56,13.08c-26.16,6.64-51.81,15.62-76.46,26.63-24.47,10.93-47.96,24.12-70.14,39.16-22.07,14.96-43.02,31.94-61.46,51.24-18.12,18.96-33.96,41.11-43.36,65.73-9.46,24.79-12.74,52.1-7.28,78.21,2.68,12.84,7.78,25.29,14.9,36.31s15.88,19.86,25.8,27.65c19.69,15.47,43.77,25.31,67.89,31.44,29.21,7.42,59.32,10.61,89.44,8.79,29.74-1.79,59.14-8.58,86.56-20.25,23.06-9.82,44.82-23.5,63.49-40.23,19.16-17.17,35.48-37.13,47.58-59.89,13.17-24.78,20.58-52.73,18.41-80.85-1.91-24.76-13.42-47.84-31.24-65.01s-39.77-29.27-63.02-37.72c-12.53-4.55-25.44-7.94-38.46-10.73-13.61-2.92-27.44-4.86-41.35-5.55-30.78-1.51-61.46,2.52-89.98,14.57-25.47,10.76-47.77,28.12-66.7,48.06-19.71,20.75-35.54,44.91-49.89,69.57-7.04,12.09-13.72,24.39-20.39,36.69-3.39,6.25,3.05,11.76,8.87,12.32,7.26.69,15.26-2.27,18.86-8.91,11.04-20.34,22.12-40.69,34.76-60.09l-1.72,2.64c12.49-19.09,26.54-37.19,43.19-52.86l-2.51,2.35c8.45-7.91,17.51-15.18,27.24-21.47.63-.41,1.26-.81,1.89-1.21.53-.33,2.63-1.61.31-.21s.1-.05.6-.35c.64-.38,1.29-.75,1.94-1.12,2.51-1.43,5.05-2.79,7.63-4.08s5.21-2.51,7.87-3.66c1.37-.59,2.74-1.16,4.13-1.7.64-.25,1.29-.5,1.93-.75,2.17-.84-1.86.68-1.82.67.44-.13.86-.31,1.3-.47,5.82-2.06,11.77-3.77,17.79-5.14,1.45-.33,2.9-.64,4.36-.93.78-.16,1.57-.31,2.36-.45.69-.13,3.64-.64.73-.14s.12,0,.74-.1c.68-.1,1.36-.2,2.04-.3,1.59-.22,3.18-.43,4.77-.61,6.16-.71,12.36-1.1,18.56-1.23,1.5-.03,3-.04,4.5-.04.81,0,1.62,0,2.42.02.35,0,.69.01,1.04.02,1.73.02-3.39-.1-1.65-.04,3.12.11,6.24.24,9.36.45,14.13.97,28.14,3.22,41.93,6.42l-3.35-.78c18.15,4.25,35.93,10.13,52.6,18.52l-2.81-1.42c12.81,6.5,24.9,14.47,35.32,24.39l-2.1-2c8.53,8.2,15.75,17.64,21.01,28.26l-1.23-2.53c5.36,11,8.37,22.89,9.25,35.07l-.2-2.8c.99,14.89-1.1,29.78-5.27,44.08l.82-2.79c-4.79,16.17-12.22,31.42-21.44,45.52l1.72-2.64c-8.81,13.4-19.24,25.67-30.92,36.66l2.51-2.35c-10.05,9.4-20.99,17.84-32.63,25.18-.68.43-1.36.85-2.05,1.28-2.58,1.59,3.21-1.92.61-.37-1.55.93-3.12,1.84-4.7,2.72-2.98,1.68-5.99,3.29-9.05,4.83-6.1,3.08-12.34,5.87-18.7,8.36-.84.33-1.68.65-2.53.97l-.33.12c-1.14.43-.44.17,2.1-.78-.44.16-.88.32-1.33.48-1.99.72-3.99,1.41-6,2.07-3.8,1.25-7.62,2.4-11.48,3.44s-7.73,2-11.63,2.85c-1.84.4-3.68.78-5.52,1.14-.92.18-1.85.35-2.77.52-.46.08-.93.16-1.39.25-2.8.51,3.98-.64,1.17-.2-7.9,1.25-15.83,2.2-23.82,2.74-3.99.27-7.99.44-11.99.53-1.88.04-3.77.06-5.65.06-.94,0-1.88,0-2.83-.02-.59,0-1.18-.02-1.77-.03-1.74-.03,3.63.1,1.26.03-18.16-.55-36.21-2.88-53.91-6.96l3.35.78c-16.33-3.81-32.34-9.1-47.33-16.68l2.81,1.42c-11.47-5.85-22.25-13.04-31.62-21.92l2.1,2c-8.51-8.15-15.62-17.6-20.83-28.18l1.23,2.53c-5.98-12.35-9.28-25.77-10.29-39.44l.2,2.8c-1.08-15.76.85-31.6,5.27-46.75l-.82,2.79c4.42-14.91,11.32-28.94,19.8-41.95l-1.72,2.64c10.28-15.66,22.77-29.72,36.4-42.53l-2.51,2.35c17.39-16.28,36.51-30.77,56.54-43.66,2.45-1.58,4.91-3.13,7.4-4.65.58-.36,2.94-1.8.61-.38s-.19.12.34-.2c1.39-.83,2.78-1.66,4.18-2.47,5.12-2.99,10.3-5.88,15.54-8.67,10.48-5.57,21.19-10.71,32.08-15.42,5.45-2.35,10.94-4.6,16.48-6.74,1.31-.5,2.62-1,3.93-1.5,3.03-1.13-3.25,1.19-1.02.38.81-.3,1.62-.59,2.43-.89,2.74-.99,5.49-1.95,8.25-2.89,11.35-3.85,22.84-7.24,34.46-10.17,5.76-1.45,11.54-2.79,17.35-4.01,2.85-.6,5.71-1.17,8.57-1.72,1.48-.28,2.97-.56,4.46-.82.64-.11,1.27-.23,1.91-.34.32-.06.64-.11.96-.17,1.78-.31-4.06.68-1.71.29,11.71-1.94,23.49-3.45,35.31-4.47s23.68-1.55,35.55-1.6c3.02-.01,6.04,0,9.06.06.32,0,.65.01.97.02,1.52.02-2.48-.06-2.11-.05.75.03,1.51.04,2.26.06,1.51.04,3.02.09,4.53.15,5.93.23,11.85.59,17.77,1.07,3.01.24,6.02.52,9.03.83,3.83.39,7.96-.29,11.44-1.98,2.75-1.34,6.24-3.93,7.42-6.93,1.05-2.63,1.34-5.74-.61-8.11s-5.1-3.88-8.26-4.21h0Z"/>
    </g>
    <g id="crown">
      <path class="cls-1" d="M69.2,98.74c1.3,3.32,2.6,6.64,3.9,9.96l27.84-9.94c-7.56-7.04-14.6-14.64-21.03-22.73s-12.51-16.57-17.31-25.64l1.14,2.17c-1.14-2.23-2.05-4.52-2.24-7.04l.1,2.45c-.04-1.33.13-2.57.58-3.83l-.9,2.47c.34-.84.76-1.58,1.3-2.3l-1.79,2.37c.48-.59,1-1.12,1.57-1.62l-2.57,2.15c.71-.57,1.46-1.07,2.26-1.51l-3.23,1.8c.96-.51,1.95-.94,2.97-1.31l-3.77,1.34c1.85-.64,3.73-1.1,5.65-1.47l-3.94.72c9.31-1.7,18.73-2.94,28.09-4.27s18.89-2.61,28.36-3.8c19.13-2.41,38.29-4.53,57.47-6.42,38.39-3.79,76.86-6.68,115.35-9.25,21.68-1.45,43.36-2.79,65.05-4.14l-10.29-12.83c-16.43,15.61-30.37,34.09-40.85,54.18-1.2,2.3-1.35,4.97.34,7.1s5.4,3.28,8.05,3.42c3.85.2,7.92-.4,11.4-2.11,2.91-1.43,6.03-3.34,7.59-6.32,5.11-9.8,11.03-19.14,17.69-27.96l-1.79,2.37c6.47-8.51,13.61-16.49,21.36-23.86,2.58-2.45,3.86-6.44,1.46-9.47-2.69-3.39-7.85-3.61-11.75-3.37-26.65,1.65-53.3,3.3-79.94,5.15s-53.26,3.88-79.85,6.29c-26.47,2.4-52.92,5.18-79.29,8.52-13.29,1.68-26.55,3.51-39.8,5.5-7.06,1.06-14.24,1.94-21.21,3.52-3.36.76-6.76,1.86-9.85,3.38-3.71,1.82-7.51,4.12-10.22,7.3-2.52,2.95-4.65,6.61-4.71,10.6-.06,3.69.71,6.75,2.36,10,2.98,5.89,6.61,11.47,10.36,16.89,6.8,9.84,14.47,19.09,22.87,27.6,2.04,2.06,4.12,4.08,6.25,6.06,2.26,2.11,4.91,3.25,8.05,3.42s6.43-.34,9.52-1.44c2.72-.97,5.74-2.4,7.68-4.62,1.61-1.85,3.62-4.67,2.59-7.29-1.3-3.32-2.6-6.64-3.9-9.96-2.46-6.28-11.29-6.46-16.82-4.82-3.42,1.02-7.16,2.54-9.56,5.29-1.61,1.85-3.62,4.67-2.59,7.29h0Z"/>
    </g>
  </g>
</svg>